<svg id="visual" viewBox="0 0 1920 1080" width="1920" height="1080" xmlns="http://www.w3.org/2000/svg" xmlns:xlink="http://www.w3.org/1999/xlink" version="1.1"><rect x="0" y="0" width="1920" height="1080" fill="#f3f4f6"></rect><defs><linearGradient id="grad1_0" x1="43.8%" y1="0%" x2="100%" y2="100%"><stop offset="14.444444444444446%" stop-color="#f3f4f6" stop-opacity="1"></stop><stop offset="85.55555555555554%" stop-color="#f3f4f6" stop-opacity="1"></stop></linearGradient></defs><defs><linearGradient id="grad2_0" x1="0%" y1="0%" x2="56.3%" y2="100%"><stop offset="14.444444444444446%" stop-color="#f3f4f6" stop-opacity="1"></stop><stop offset="85.55555555555554%" stop-color="#f3f4f6" stop-opacity="1"></stop></linearGradient></defs><g transform="translate(1920, 0)"><path d="M0 432C-89.4 428.7 -178.7 425.3 -216 374.1C-253.3 322.9 -238.5 223.8 -265.9 153.5C-293.2 83.2 -362.6 41.6 -432 0L0 0Z" fill="#eab308"></path></g><g transform="translate(0, 1080)"><path d="M0 -432C92.2 -430.3 184.5 -428.7 216 -374.1C247.5 -319.6 218.3 -212.2 244.2 -141C270.1 -69.8 351.1 -34.9 432 0L0 0Z" fill="#eab308"></path></g></svg>