<svg id="visual" viewBox="0 0 1920 1080" width="1920" height="1080" xmlns="http://www.w3.org/2000/svg" xmlns:xlink="http://www.w3.org/1999/xlink" version="1.1"><rect x="0" y="0" width="1920" height="1080" fill="#030712"></rect><defs><linearGradient id="grad1_0" x1="43.8%" y1="0%" x2="100%" y2="100%"><stop offset="14.444444444444446%" stop-color="#030712" stop-opacity="1"></stop><stop offset="85.55555555555554%" stop-color="#030712" stop-opacity="1"></stop></linearGradient></defs><defs><linearGradient id="grad2_0" x1="0%" y1="0%" x2="56.3%" y2="100%"><stop offset="14.444444444444446%" stop-color="#030712" stop-opacity="1"></stop><stop offset="85.55555555555554%" stop-color="#030712" stop-opacity="1"></stop></linearGradient></defs><g transform="translate(1920, 0)"><path d="M0 486C-58.3 470.3 -116.6 454.6 -180.2 435.1C-243.9 415.7 -312.9 392.4 -343.7 343.7C-374.4 294.9 -367 220.7 -384.3 159.2C-401.7 97.7 -443.8 48.8 -486 0L0 0Z" fill="#eab308"></path></g><g transform="translate(0, 1080)"><path d="M0 -486C53.4 -460.5 106.9 -435 173 -417.6C239.1 -400.2 317.8 -390.8 343.7 -343.7C369.5 -296.5 342.6 -211.7 357.5 -148.1C372.5 -84.5 429.2 -42.3 486 0L0 0Z" fill="#eab308"></path></g></svg>